<!DOCTYPE svg PUBLIC "-//W3C//DTD SVG 1.1//EN" "http://www.w3.org/Graphics/SVG/1.1/DTD/svg11.dtd">
<!-- Uploaded to: SVG Repo, www.svgrepo.com, Transformed by: SVG Repo Mixer Tools -->
<svg width="800px" height="800px" viewBox="0 0 24 24" xmlns="http://www.w3.org/2000/svg" id="left-circle-1" class="icon glyph" fill="#000000" stroke="#000000" stroke-width="0.00024000000000000003" transform="matrix(-1, 0, 0, 1, 0, 0)">
<g id="SVGRepo_bgCarrier" stroke-width="0"/>
<g id="SVGRepo_tracerCarrier" stroke-linecap="round" stroke-linejoin="round"/>
<g id="SVGRepo_iconCarrier">
<path d="M12,2A10,10,0,1,0,22,12,10,10,0,0,0,12,2Zm1.71,12.29a1,1,0,0,1,0,1.42,1,1,0,0,1-1.42,0l-3-3a1,1,0,0,1,0-1.42l3-3a1,1,0,0,1,1.42,1.42L11.41,12Z" style="fill:#ffffff"/>
</g>
</svg>